<svg xmlns="http://www.w3.org/2000/svg" width="200" height="69" viewBox="0 0 200 69" fill="none"><g clip-path="url(#clip0_412_31)"><path d="M68.82 35.916C68.8264 33.1234 67.9696 30.3972 66.366 28.1107C64.7628 25.8242 62.4916 24.0894 59.864 23.144C60.1032 21.9252 60.2236 20.6861 60.224 19.444C60.2264 15.3328 58.9248 11.3267 56.5068 8.00172C54.0888 4.67676 50.6788 2.20418 46.7668 0.939483C42.8552 -0.325212 38.6429 -0.316878 34.736 0.963287C30.8292 2.24346 27.4289 4.72952 25.024 8.064C23.2498 6.68916 21.0759 5.92992 18.8315 5.9014C16.5871 5.87288 14.3946 6.57656 12.586 7.90584C10.7774 9.23516 9.45132 11.1177 8.80856 13.2683C8.16584 15.4188 8.24148 17.7203 9.02404 19.824C6.39016 20.784 4.11348 22.5276 2.50017 24.8203C0.886876 27.113 0.0143816 29.8447 4.61164e-05 32.648C-0.0072624 35.4502 0.854284 38.1858 2.46607 40.478C4.07784 42.7704 6.3606 44.5068 9.00004 45.448C8.7664 46.6664 8.6472 47.9036 8.64404 49.144C8.64012 53.2504 9.94044 57.252 12.3575 60.572C14.7746 63.8916 18.1834 66.358 22.0927 67.6156C26.0019 68.8728 30.2095 68.8564 34.1087 67.568C38.0079 66.28 41.3972 63.7868 43.788 60.448C45.5572 61.8264 47.7272 62.59 49.9696 62.6236C52.212 62.6572 54.404 61.9584 56.2132 60.6336C58.0228 59.3084 59.3508 57.4296 59.9956 55.282C60.6408 53.134 60.568 50.8348 59.788 48.732C62.4232 47.7736 64.7016 46.0304 66.3156 43.7376C67.93 41.4448 68.8024 38.7121 68.816 35.908" fill="white"></path><path d="M27.056 29.524L42.116 36.4L57.316 23.088C57.5348 21.9896 57.6436 20.872 57.64 19.752C57.6392 16.126 56.478 12.5954 54.326 9.67692C52.1744 6.7584 49.1452 4.60516 45.6812 3.53228C42.2176 2.45939 38.5016 2.52318 35.0768 3.7143C31.652 4.90544 28.6984 7.16136 26.648 10.152L24.116 23.248L27.056 29.524Z" fill="#FEC514"></path><path d="M11.468 45.472C11.246 46.5876 11.1347 47.7224 11.136 48.86C11.1361 52.5012 12.3033 56.0464 14.4663 58.9752C16.6294 61.9044 19.6743 64.0628 23.1543 65.134C26.6342 66.2052 30.3659 66.1328 33.8017 64.9272C37.2375 63.722 40.1964 61.4468 42.244 58.436L44.752 45.368L41.404 38.968L26.288 32.08L11.468 45.472Z" fill="#00BFB3"></path><path d="M11.376 19.412L21.696 21.848L23.956 10.112C22.5524 9.04765 20.8417 8.46661 19.0802 8.45589C17.3186 8.44513 15.601 9.00533 14.1844 10.0525C12.7679 11.0997 11.7287 12.5776 11.2224 14.2648C10.7162 15.9521 10.77 17.7579 11.376 19.412Z" fill="#F04E98"></path><path d="M10.4801 21.868C8.21577 22.6321 6.24585 24.0828 4.84433 26.0184C3.44279 27.9541 2.67931 30.2784 2.66007 32.668C2.65844 34.9776 3.3598 37.2329 4.67093 39.1342C5.98201 41.0356 7.84077 42.4928 10.0001 43.312L24.4801 30.224L21.8201 24.544L10.4801 21.868Z" fill="#1BA9F5"></path><path d="M44.892 58.436C46.2936 59.4948 48 60.0724 49.7564 60.0816C51.5128 60.0908 53.2252 59.532 54.6376 58.488C56.0504 57.444 57.0872 55.9708 57.594 54.2888C58.1004 52.6072 58.0492 50.8064 57.448 49.156L47.136 46.756L44.892 58.436Z" fill="#93C90E"></path><path d="M46.988 44.04L58.34 46.692C60.6056 45.93 62.5768 44.48 63.9788 42.5436C65.3808 40.6076 66.1432 38.2823 66.16 35.892C66.158 33.5874 65.4552 31.3378 64.1452 29.4418C62.8348 27.5458 60.9792 26.0929 58.824 25.276L43.976 38.276L46.988 44.04Z" fill="#0077CC"></path><path d="M96.224 48.16L97.6 48.02L97.696 50.82C94.634 51.2824 91.5444 51.5364 88.448 51.58C85.0348 51.58 82.616 50.592 81.192 48.616C79.768 46.64 79.0572 43.5652 79.06 39.392C79.06 31.08 82.364 26.9227 88.972 26.92C92.172 26.92 94.5588 27.8134 96.132 29.6C97.7056 31.3867 98.4948 34.1867 98.5 38L98.312 40.704H82.664C82.664 43.328 83.1388 45.272 84.088 46.536C85.0376 47.8 86.688 48.432 89.04 48.432C91.3976 48.44 93.792 48.3492 96.224 48.16ZM94.944 37.872C94.944 34.9627 94.4788 32.908 93.548 31.708C92.6172 30.508 91.1 29.9067 88.996 29.904C86.892 29.904 85.3108 30.536 84.252 31.8C83.1936 33.064 82.648 35.088 82.616 37.872H94.944Z" fill="white"></path><path d="M103.46 51.392V20.192H107.016V51.392H103.46Z" fill="white"></path><path d="M129.412 34.552V46.512C129.412 47.712 132.364 47.648 132.364 47.648L132.184 50.792C129.684 50.792 127.616 51 126.376 49.796C123.691 50.9888 120.782 51.5956 117.844 51.576C115.665 51.576 114.005 50.9588 112.864 49.724C111.723 48.4892 111.153 46.7148 111.156 44.4C111.156 42.0908 111.741 40.3908 112.912 39.3C114.083 38.2094 115.916 37.5427 118.412 37.3L125.856 36.592V34.552C125.856 32.952 125.509 31.7974 124.816 31.088C124.436 30.7314 123.988 30.4554 123.498 30.2767C123.009 30.098 122.488 30.0202 121.968 30.048H112.624V26.916H121.732C124.42 26.916 126.372 27.5334 127.588 28.768C128.804 30.0027 129.412 31.9307 129.412 34.552ZM114.8 44.224C114.8 47.1332 116 48.588 118.4 48.588C120.565 48.5856 122.714 48.2164 124.756 47.496L125.844 47.116V39.292L118.84 39.956C117.416 40.084 116.388 40.4948 115.756 41.188C115.124 41.8812 114.805 42.8932 114.8 44.224Z" fill="white"></path><path d="M143.296 30.096C139.848 30.096 138.124 31.296 138.124 33.696C138.124 34.8054 138.524 35.588 139.324 36.044C140.124 36.5 141.926 36.9747 144.728 37.468C147.544 37.9614 149.536 38.6494 150.704 39.532C151.872 40.4148 152.458 42.0732 152.46 44.508C152.46 46.9452 151.678 48.732 150.112 49.868C148.547 51.004 146.263 51.5732 143.26 51.576C141.3 51.576 134.756 50.848 134.756 50.848L134.948 47.768C138.708 48.128 141.424 48.396 143.26 48.396C145.096 48.396 146.492 48.104 147.456 47.52C148.42 46.936 148.9 45.956 148.9 44.58C148.9 43.204 148.5 42.272 147.668 41.78C146.836 41.288 145.044 40.824 142.264 40.38C139.484 39.936 137.504 39.288 136.336 38.436C135.168 37.584 134.58 36 134.58 33.692C134.58 31.384 135.38 29.692 137.024 28.572C138.668 27.452 140.684 26.912 143.116 26.912C145.044 26.912 151.736 27.404 151.736 27.404V30.504C148.204 30.348 145.316 30.096 143.296 30.096Z" fill="white"></path><path d="M169.6 30.472H162.06V41.808C162.06 44.5252 162.257 46.3108 162.652 47.164C163.052 48.02 163.988 48.444 165.472 48.444L169.692 48.16L169.932 51.1C168.334 51.3956 166.716 51.5704 165.092 51.624C162.628 51.624 160.921 51.0228 159.972 49.82C159.023 48.6172 158.549 46.3252 158.552 42.944V30.472H155.2V27.392H158.568V20.136H162.076V27.392H169.6V30.472Z" fill="white"></path><path d="M174.544 24.364V20.236H178.1V24.364H174.544ZM174.544 51.392V27.392H178.1V51.392H174.544Z" fill="white"></path><path d="M193.504 26.916C195.28 26.9918 197.049 27.1829 198.8 27.488L199.936 27.628L199.796 30.52C197.938 30.2846 196.069 30.143 194.196 30.096C191.508 30.096 189.683 30.736 188.72 32.016C187.757 33.296 187.275 35.6667 187.272 39.128C187.272 42.5948 187.723 45.0052 188.624 46.36C189.525 47.7148 191.405 48.3948 194.264 48.4L199.864 47.976L200.008 50.916C197.828 51.2852 195.626 51.5072 193.416 51.58C189.72 51.58 187.168 50.6308 185.76 48.732C184.352 46.8332 183.648 43.6332 183.648 39.132C183.648 34.628 184.407 31.4667 185.924 29.648C187.441 27.8294 189.968 26.9187 193.504 26.916Z" fill="white"></path></g><defs><clipPath id="clip0_412_31"><rect width="200" height="68.8" fill="white"></rect></clipPath></defs></svg>